# xmcd CD database file
#
# Track frame offsets:
#	150
#	14646
#	30639
#	46396
#	60453
#	74678
#	85530
#	105000
#	118431
#	134600
#	148546
#	166736
#
# Disc length: 2411 seconds
#
# Revision: 3
# Processed by: cddbd v1.5.2PL0 Copyright (c) Steve Scherf et al.
# Submitted via: CDex 1.79
#
DISCID=a209690c
DTITLE=Rhonda Vincent - Good Thing Going
DYEAR=2008
DGENRE=Bluegrass
TTITLE0=I'm Leavin'
TTITLE1=World's Biggest Fool
TTITLE2=I Give All My Love to You (featuring Russell Moore)
TTITLE3=Good Thing Going
TTITLE4=Scorn Of A Lover
TTITLE5=Hit Parade Of Love
TTITLE6=I Will See You Again
TTITLE7=Just One Of A Kind
TTITLE8=I Gotta Start Somewhere
TTITLE9=Who's Cryin' Baby
TTITLE10=The Water Is Wide (featuring Keith Urban)
TTITLE11=Bluegrass Saturday Night
EXTD=YEAR: 2008
EXTT0=
EXTT1=
EXTT2=
EXTT3=
EXTT4=
EXTT5=
EXTT6=
EXTT7=
EXTT8=
EXTT9=
EXTT10=
EXTT11=
PLAYORDER=
